<?xml version="1.0" standalone="no"?>
<!DOCTYPE svg PUBLIC "-//W3C//DTD SVG 20010904//EN"
 "http://www.w3.org/TR/2001/REC-SVG-20010904/DTD/svg10.dtd">
<svg version="1.0" xmlns="http://www.w3.org/2000/svg"
 width="140.000000pt" height="107.000000pt" viewBox="0 0 140.000000 107.000000"
 preserveAspectRatio="xMidYMid meet">

<g transform="translate(0.000000,107.000000) scale(0.100000,-0.100000)"
fill="#000000" stroke="none">
<path d="M37 1043 c-4 -3 -7 -235 -7 -515 l0 -508 670 0 670 0 0 515 0 515
-663 0 c-365 0 -667 -3 -670 -7z m1288 -523 l0 -455 -295 0 -295 0 -3 158 -3
157 -129 0 -129 0 -3 -157 -3 -158 -195 0 -195 0 -3 247 -2 248 199 0 200 0 3
-47 3 -48 125 0 125 0 3 245 c1 135 4 251 7 258 3 10 68 12 297 10 l293 -3 0
-455z m-971 426 c18 -8 46 -31 62 -51 23 -30 28 -48 28 -91 0 -58 -17 -90 -67
-128 -38 -28 -140 -33 -187 -9 -108 56 -108 221 0 275 42 22 118 23 164 4z"/>
</g>
</svg>
