<svg width="310" height="381" viewBox="0 0 310 381" fill="none"
    xmlns="http://www.w3.org/2000/svg">
    <path d="M86.2998 256.52L92.7998 275.88L101.3 271.52L92.4798 253.22C92.4798 253.22 86.7198 256.2 86.2998 256.52Z" fill="#79E1CF"/>
    <path d="M128.38 201.6C139.292 198.52 149.85 194.303 159.88 189.02L209.52 196.82C209.52 196.82 218.6 202.08 219.7 202.24C222.807 201.987 225.918 202.685 228.62 204.24C232.28 206.78 239.6 206.78 241.5 207.1C244.243 207.987 246.865 209.217 249.3 210.76C251.2 211.88 259.64 214.58 261.08 215.54C262.52 216.5 265.84 217.54 266.64 221.54C267.758 226.455 268.428 231.463 268.64 236.5C268.48 240.16 267.54 250.02 266.1 253.84C264.66 257.66 258.46 277.54 258.1 279.84C257.74 282.14 257 297.66 256.1 300.86C255.2 304.06 250.86 320.86 250.1 323.92C249.34 326.98 243.58 342.22 242.62 344.92C241.66 347.62 240.22 352.56 240.62 354.62C241.198 356.852 241.36 359.17 241.1 361.46C240.78 364.02 242.86 376.58 242.22 377.46C241.58 378.34 219.3 379.36 211.52 376.98C203.74 374.6 172.7 377.94 160.12 377.3C147.54 376.66 114.3 376.34 109.54 375.3C104.78 374.26 98.8802 374.04 101.74 370.86C104.6 367.68 104.92 363.22 105.08 358.86C105.499 354.918 106.296 351.028 107.46 347.24L97.4602 278.74L112.14 248.74L128.38 201.6Z" fill="currentColor"/>
    <path d="M266.48 182C268.98 183.76 268.66 183.38 266.48 183.66C264.3 183.94 263.16 184.02 262.9 185.44C262.687 186.597 262.358 187.728 261.92 188.82C261.818 188.743 261.723 188.657 261.64 188.56C257.64 182.68 260.74 184.2 253.4 183.6C251.94 183.6 255.96 182.24 257.14 179.6C257.58 178.62 255.52 174.96 256.68 175.6C260.2 177.46 259.06 176.78 259.5 177.04C260.82 177.86 264.74 174.64 266.24 174.2C266.7 177.44 263 179.44 266.48 182Z" fill="#FFEAB6"/>
    <path d="M296.08 120C297.06 120.36 294.08 121.22 292.86 122.14C290.86 123.62 292.74 124.86 292.58 126.94C291.02 126.28 289.26 122.94 286.94 122.94C282.76 124.34 282.5 124.94 281.76 124.94C282 123.44 285.52 120.4 283.52 118.78C282.74 118.18 280.8 115.32 281.78 115.54C285.66 116.44 285.64 116.62 286.38 116.1C290.28 113.42 290.38 109.3 291.1 114.94C291.72 120 290.46 118 296.08 120Z" fill="#FFEAB6"/>
    <path d="M291.22 54.1199C291.12 54.2599 291.04 54.4399 290.9 54.4999C285.86 57.0999 285.52 56.7799 285.82 58.4999C286.58 63.2399 286.4 62.4999 286.28 63.3199C280.94 58.4799 283.06 59.0999 282.28 58.9599C280.8 58.7399 278.04 60.3999 275.38 60.9599C274.46 60.9599 274.82 60.7599 277.12 56.9599C279.66 52.8199 267.3 47.9199 278.02 50.9599C280.02 51.5399 279.66 51.2599 283.3 46.3599C284.46 44.7799 283.72 51.9199 286.42 52.1599C287.36 52.1599 288.66 53.2799 290.8 53.7599C290.958 53.858 291.1 53.9794 291.22 54.1199Z" fill="#FFEAB6"/>
    <path d="M84.3401 141.2C94.5001 138.92 84.3401 142.12 86.6001 145.92C88.4601 149.2 89.2201 148.9 85.6001 148.1C81.4001 147.16 83.3001 146.88 78.9401 151.3C78.4201 151.84 79.0401 149.64 79.2001 147.56C79.3801 145.08 74.5801 144.28 73.8801 142.98C74.2201 142.98 73.6201 142.98 76.7001 142.68C80.5001 142.36 78.7001 140.22 80.3601 136.82C81.7201 138 83.1201 141.46 84.3401 141.2Z" fill="#FFEAB6"/>
    <path d="M104.78 96.24C105.28 97.08 102.781 96.24 99.2405 94.92C97.2405 94.18 97.7004 92.68 92.9804 99.28C91.1604 101.86 93.8205 93.6 90.8005 92.48C83.9605 89.92 83.9604 90.48 91.4804 87.76C93.1204 87.16 92.3404 83.58 93.4804 80.5C100.62 87.18 94.6004 86.62 105.04 84.22C103.5 88.34 100.3 89.52 102.14 91.66C103.162 93.1007 104.046 94.634 104.78 96.24Z" fill="#FFEAB6"/>
    <path d="M159.32 213.62C160.26 218.06 161.18 218.58 160.14 218.42C151.08 217 142.24 208.04 140.42 200.52C140.08 199.1 139.84 199.24 141.36 198.72C145.82 197.14 148.12 195.44 147.56 196.44C146.44 198.44 147.24 201.02 147.1 201.94C146.58 205.4 148.98 208.32 152.44 210.16C152.9 210.4 152.74 210.36 155.8 210.56C157.8 210.08 158.06 209.88 158.3 210.56C158.748 211.542 159.09 212.567 159.32 213.62Z" fill="#FFC6A6"/>
    <path d="M230.6 61.3601C236.08 63.6601 237.62 64.0201 233.92 64.9401C231.6 64.3801 231.32 64.3401 229.92 61.5001C229.78 61.1401 230.22 61.2001 230.6 61.3601Z" fill="#E6FCFF"/>
    <path d="M241.56 60.4798C241.9 60.4798 241.88 60.7198 241.74 60.8998C240.92 61.9998 239.98 63.6198 238.44 62.6398C234.44 60.0598 226.64 58.8798 228.78 55.5398C229.66 54.1798 228.94 55.7398 233.5 57.6998C238.44 59.8198 240.22 60.6398 241.56 60.4798Z" fill="#E6FCFF"/>
    <path d="M243.2 56.16C244.42 56.28 242.92 58.46 240.98 58.42C237.76 57.3 228.06 53.74 230.74 51.62C231.06 51.38 230.9 50.7 231.36 50.74C232.16 50.74 231.1 51.58 236.4 53.7C241.7 55.82 242.16 56 243.2 56.16Z" fill="#E6FCFF"/>
    <path d="M233.18 46.46C243.78 54.46 247.98 50.34 244.78 54.06C244.18 54.76 241.86 53.58 240.98 53.26C236.7 51.68 229.56 49.4 233.18 46.46Z" fill="#E6FCFF"/>
    <path d="M261.22 32.2402C261.84 32.4202 261.38 33.8802 260.82 33.5802C258.7 32.5002 260.48 32.0002 261.22 32.2402Z" fill="#FFD152"/>
    <path d="M240.08 26.7602C238.98 27.6602 238.48 25.9202 239.2 25.7202C239.44 25.6602 239.86 26.4202 240.08 26.7602Z" fill="#FFD152"/>
    <path d="M247.62 10.4003C272.4 10.2603 277.74 42.8603 251.98 45.8003C248.62 46.2003 247.98 45.2403 246.94 46.5803C245.06 49.2403 246.28 50.4403 244.74 50.0403C241.597 49.2371 238.6 47.9409 235.86 46.2003C233.32 44.6603 237.86 44.2003 236.54 41.3403C235.22 38.4803 235.16 40.6603 233.08 37.3403C223.46 22.0003 237.1 9.82026 247.62 10.4003ZM259.98 35.8803C261.24 39.0003 265.16 31.6203 262.14 30.6403C259.12 29.6603 258.32 31.7803 257.84 31.6603C253.2 30.6203 256.08 31.2203 253.4 29.8403C252.16 29.2003 251.18 30.7003 250.18 29.2803C248.6 27.0003 249.74 29.2803 242.32 26.3203C241.8 26.1203 241.52 25.4003 241.12 24.9203C240.72 24.4403 240.1 24.4403 239.36 24.2403C237.2 23.6603 235.96 28.0803 239.36 28.6603C239.72 28.6603 239.98 28.6603 239.86 29.2803C239.1 32.5403 243.52 35.2803 242.64 36.8603C241.445 39.1468 240.602 41.6013 240.14 44.1403C240.04 44.7403 240.58 44.4203 240.8 44.6003C241.64 45.3203 242.04 41.5603 244.2 37.5003C245.66 34.8003 241.42 32.1003 241.52 29.7803C241.64 26.8003 242.8 28.5003 245.52 29.3603C247.04 29.8403 248.2 29.3603 248.62 30.3603C248.892 30.8946 249.347 31.3138 249.9 31.5413C250.455 31.7689 251.072 31.7898 251.64 31.6003C253.48 31.1203 253 32.5403 255.16 33.0003C257.32 33.4603 257.3 33.3603 257.3 34.1603C257.3 34.4403 257.3 34.7403 256.96 34.8203C255.932 35.1711 254.952 35.6481 254.04 36.2403C252.9 36.7803 253.4 35.8603 251.5 37.1003C248.64 38.9603 249.12 37.7803 247.92 38.7203C245.92 40.3403 241.54 44.9603 242.94 46.0603C244.34 47.1603 244.5 44.2803 247.34 41.6803C250.18 39.0803 249.74 40.3403 250.7 39.6803C252.7 38.4403 252.98 38.2603 253.28 38.2403C255 38.1003 256.32 36.6603 257.62 36.5403C259.38 36.3803 258.92 34.8403 259.3 34.9603C259.68 35.0803 259.84 35.5403 259.98 35.8803Z" fill="#FFD152"/>
    <path d="M88.5609 28.8998C88.8751 29.9389 88.8664 31.0491 88.5359 32.0833C88.2054 33.1173 87.5687 34.0268 86.71 34.6909C85.8512 35.3553 84.8111 35.7431 83.7272 35.8033C82.6432 35.8633 81.5666 35.5929 80.6396 35.0276C79.7127 34.4624 78.9794 33.6289 78.5366 32.6378C78.0937 31.6466 77.9622 30.5443 78.1597 29.4768C78.357 28.4091 78.8741 27.4268 79.6421 26.6594C80.4102 25.8921 81.393 25.3763 82.4609 25.1798C83.7567 24.9459 85.0932 25.1954 86.2176 25.8811C87.3417 26.5666 88.1756 27.6408 88.5609 28.8998Z" fill="#9EDEFF"/>
    <path d="M68.7402 46.1199C69.6202 45.1199 70.7402 44.1199 71.2802 45.4599C71.2802 45.4599 53.1002 65.7799 53.0602 65.8199C51.5802 64.7999 51.0002 66.8799 68.7402 46.1199Z" fill="#9EDEFF"/>
    <path d="M80.8006 63.8C81.1606 64.66 81.0006 64.34 68.4006 76.82C67.7606 77.48 68.0606 77.46 67.3606 67.44C67.3606 66.5 75.3606 60.24 77.9406 57.16C80.5206 54.08 79.8406 54.6 80.8006 63.8Z" fill="#9EDEFF"/>
    <path d="M58.8804 38.0003C60.4204 37.8003 56.0604 41.3403 52.8804 46.1403C52.1604 47.1803 49.4404 50.8203 48.3804 50.9603C48.3804 50.9603 38.3804 51.2603 38.3804 51.2003C38.1004 50.8203 43.4404 45.7203 48.3804 40.0603C49.0004 39.1203 49.0004 39.2803 58.8804 38.0003Z" fill="#9EDEFF"/>
    <path d="M107.5 8.98029C107.304 11.8103 106.684 14.5946 105.66 17.2403C100.84 29.0003 101.26 27.9403 99.9404 25.5803C93.8204 14.6803 85.3404 13.5803 86.9404 12.6003C90.9965 9.61345 95.5554 7.37812 100.4 6.00032C107.98 4.00032 107.14 6.00032 107.5 8.98029Z" fill="#FF8E92"/>
    <path d="M228.84 155.42C227.3 150.16 231.1 136.9 232.24 133.96C233.787 128.66 234.235 123.1 233.56 117.62C232.76 111.36 228.36 100.76 226.04 95.62C223.72 90.48 213.64 80.96 210.44 78.48C207.24 76 191.9 69.56 186.44 67.16C180.98 64.76 171.16 64.22 171.16 64.22C169.695 62.3863 167.65 61.1047 165.36 60.5852C163.072 60.0655 160.673 60.3387 158.56 61.36C152.56 64.02 151.56 70.42 151.04 70.56C138.64 70.42 136.9 80.42 136.9 80.42C132.3 85.08 133.58 88.02 135.5 91.08C137.42 94.14 143.64 94.22 143.64 94.22C143.64 94.22 181.46 86 193 104C204.54 122 200 151.36 200 151.36L200.32 180.52C202.152 182.26 204.442 183.44 206.922 183.927C209.4 184.412 211.967 184.18 214.32 183.26C207.14 177.78 208.52 174.66 208.52 174.66C219.4 181.38 224.2 174.66 224.2 174.66C222.352 174.298 220.618 173.49 219.155 172.305C217.69 171.118 216.538 169.593 215.8 167.86C219.005 168.832 222.315 169.415 225.66 169.6C234.6 170.46 236.6 165.6 236.6 165.6C236.6 165.6 230.36 160.68 228.84 155.42Z" fill="#FFB564"/>
    <path d="M152.24 170C151.682 169.377 151.372 168.568 151.372 167.73C151.372 166.892 151.682 166.083 152.24 165.46C139.94 157.88 142.58 151.62 139.94 152.88C137.11 154.129 134.087 154.887 131 155.12C130.2 155.36 133.22 160.52 139.88 162.74C145.52 164.62 133.88 170 132.1 170.14C129.2 170.36 141.44 177.7 148.38 173.02C148.543 172.888 148.745 172.81 148.953 172.798C149.163 172.787 149.372 172.84 149.548 172.953C149.725 173.067 149.862 173.232 149.94 173.427C150.018 173.622 150.032 173.837 149.98 174.04C149.418 176.835 148.412 179.522 147 182C150.46 182.62 154.42 180.34 157.3 178.38C158.06 177.88 157.78 177 158.08 176.38C158.2 176.1 155.68 174.24 152.24 170Z" fill="#FFB564"/>
    <path d="M120.74 194.64C124.4 202.24 124.56 201.86 123.66 202.18L83.0001 215.6C82.5201 215.6 83.1801 216.74 74.1401 198.86C73.6801 197.96 71.2601 199.18 99.8001 189.62C104.76 187.96 109.48 186.3 114.78 184.56C116.14 184.12 115 182.76 120.74 194.64ZM115.28 201.14C114.42 199.66 113.74 200.68 112.68 200.72C112.42 200.72 86.5201 208.72 84.6801 209.6C83.7801 209.98 82.9601 211.18 84.0601 211.46C84.4801 211.56 113.74 202.92 115.28 201.14ZM109 192.7C109.64 192.38 110.08 191.26 108.72 190.98C108.48 190.98 106.94 191.44 104.72 192C96.8201 194 95.7201 195.48 93.6801 195.44C91.3201 195.44 91.4201 196.4 87.9001 197.18C79.9001 198.96 81.2001 199.72 79.0601 199.82C78.8001 199.82 78.3801 200.44 78.3001 200.68C78.1201 201.4 80.3001 201.82 81.3401 201.24C83.5641 200.045 85.9929 199.278 88.5001 198.98C91.8001 198.4 91.6801 197.34 93.6201 197.44C97.3201 196.94 98.7201 195.44 102.08 194.6C105.44 193.76 106.44 194 109 192.7ZM103.74 200C104.075 200.022 104.406 199.923 104.674 199.722C104.942 199.518 105.129 199.228 105.2 198.9C105.2 196.6 97.2001 200.26 93.4201 200.9C89.9801 201.48 82.1601 203.76 81.0201 205C80.2201 205.88 80.6601 206.38 81.7401 206.44C85.7401 205.08 85.2001 204.9 86.6401 204.44C94.9601 202.1 89.2401 204.02 98.0601 201.48C102.06 200.4 102.32 200 103.74 200Z" fill="#FFF5DB"/>
    <path d="M88.9998 248.62C89.5998 249.84 87.3998 250.52 86.1198 250.76C85.3598 250.26 87.0398 253.04 68.7198 216.14C56.9998 192.82 56.9998 193.76 58.1998 193.76C64.4398 193.78 54.7798 180 88.9998 248.62Z" fill="#79E1CF"/>
    <path d="M62.64 208.3C84.92 253.5 84.5 251.42 83.54 251.76C71.54 255.88 77.54 263.76 76.3 266.46C75.64 265.52 34.3 180.82 34.02 180.12C34.34 180 33.26 179.46 50.78 189.92C56.4 193.28 53.14 189 62.64 208.3Z" fill="#79E1CF"/>
    <path d="M124.2 186.14C117.381 172 117.841 172.84 117.281 173.04C111.281 175.18 79.8807 185.6 74.5807 187.34C61.5207 191.66 62.3407 190.82 63.1407 192.38C93.7407 252.2 89.1407 248.82 92.6407 247.88C96.7407 247.78 94.0007 254.6 94.1407 254.96C94.2807 255.32 95.2807 257.82 95.8407 257.62C97.0487 257.095 98.2837 256.633 99.5407 256.24C102.368 255.822 105.121 255.007 107.721 253.82C113.321 250.96 113.401 259.94 106.321 263.4C104.405 264.565 102.349 265.478 100.201 266.12C99.8407 266.12 99.7607 266.4 99.9207 266.72C101.361 269.76 101.001 269.52 101.921 269.52C112.721 269.52 111.441 267.78 118.921 266.2C121.121 265.72 122.04 268.42 121.181 270.2C120.981 270.6 121.321 270.56 121.74 270.44C121.74 270.44 157.74 259.78 159.3 259.28C160.86 258.78 160.12 260.58 124.2 186.14ZM125 203.76C124.68 203.88 87.4807 216.22 83.0007 217.54C81.3407 217.36 81.6607 218.26 72.4007 199C71.1607 196.44 69.5207 197.64 115.101 182.48C116.901 181.88 116.821 182.48 119.321 187.6C126.08 201.48 127.56 202.88 125 203.76Z" fill="#79E1CF"/>
    <path d="M232.84 302.88C234.84 305.86 235.3 301.18 218.68 324.64C216.878 327.078 214.928 329.403 212.84 331.6C210.02 334.86 207.76 338.5 203.3 341.92C192.86 349.92 185.04 347.92 175.94 337.26C174.562 334.918 173.582 332.363 173.04 329.7C171.74 324.44 169.42 322.98 167.8 317.02C163.56 301.44 168.18 226.16 168.6 225.78C170.32 224.2 167.64 224.98 163.78 219.94C160.64 215.94 162.1 211.66 155.78 201.38C155.653 201.102 155.465 200.857 155.23 200.662C154.993 200.468 154.717 200.33 154.42 200.26C153.2 200.06 154.2 201.64 154.76 202.88C155.6 204.7 153.88 203.54 153.56 203.52C152.74 203.42 152.18 204.36 154.98 206C155.32 206.2 156.24 206.22 156.48 206.54C156.715 206.987 156.883 207.465 156.98 207.96C156.98 208.24 156.98 208.32 156.72 208.34C154.52 208.6 153.56 209.06 151.74 207.52C150.7 206.64 148.84 204.64 148.88 203.28C148.98 199.28 148.3 197.28 151.74 195.28C153.08 194.54 153.32 193.28 153.4 191.8C153.54 189.08 156.28 190.56 157.4 187.02C159 181.98 166.32 186.42 165.26 183.6C162.02 175.1 151.86 169.6 153.26 167.16C154.58 165.02 159.4 169 160.64 170.44C164.52 174.82 171.64 180.78 172.28 184.94C172.68 187.44 174.42 188.3 176.16 194.14C179.3 204.62 182.86 209.08 183.28 220.66C183.94 238.66 202.52 307.74 202.54 307.8C203.06 308.88 204.3 308.42 204.24 307.3C203.52 293.88 196.04 279.08 197.88 278.98C200.913 278.77 203.948 279.363 206.68 280.7C208.52 282.08 219.88 292.18 220.88 293.12C225.24 297 229.86 298.32 232.84 302.88Z" fill="#FFC6A6"/>
    <path d="M210.2 133.22C218.64 126.08 228.62 131.88 220.2 145.36C218.52 148.02 216.84 150.32 209.5 153.36C199.96 157.36 198.82 132.94 198.64 177.36C198.64 189.96 200 193.74 217.7 202.32C218.4 202.66 212.26 207.24 212.22 207.26C201.56 214.9 207.82 211.26 196.02 216C194.02 216.76 185.76 220.18 185.62 218.92C184.02 205.54 180.82 202.48 178.62 194.64C176.62 187.72 174.38 185.96 174.18 183.64C173.9 180.24 166.18 173.64 165.24 172.44C164.9 172.04 164.94 171.88 165.44 171.7C187.98 164.36 184.56 158.78 182.28 160.12C177.64 162.82 156.86 170.26 147.18 159.16C136.56 146.96 136.32 125.3 140.72 126.66C142.538 127.062 144.433 126.958 146.197 126.358C147.958 125.759 149.523 124.687 150.72 123.26C151.88 122.1 150.72 126.52 156.32 127.54C157.48 127.76 157.92 126.34 157.22 126C155.52 125.14 153.92 124.74 153 121.88C152.28 119.66 159.2 121.44 159 116.24C159 114.86 157.66 114.82 157.36 116.06C156.82 118.2 157.36 117.88 154.16 118.48C153.88 118.48 153.8 118.48 153.9 118.14C155.66 112.6 155.1 111.02 156.9 109.68C157.68 109.224 158.568 108.986 159.47 108.991C160.373 108.996 161.258 109.243 162.033 109.707C162.808 110.171 163.443 110.835 163.875 111.629C164.305 112.423 164.515 113.318 164.48 114.22C164.74 120.76 171.08 130.34 178.48 130.06C188.96 129.64 191.98 118.84 193.88 117.66C195.14 116.86 196.46 117.36 201.78 120.62C203.34 121.56 198.8 131.04 206.2 134.28C206.98 134.62 205.28 135.66 207.18 136.28C207.4 136.52 208.48 134.66 210.2 133.22ZM219.78 139.5C220.057 138.941 220.172 138.316 220.112 137.695C220.052 137.075 219.82 136.483 219.442 135.988C219.062 135.492 218.552 135.113 217.968 134.893C217.385 134.672 216.752 134.619 216.14 134.74C212.9 135.44 209.36 139.56 211.08 142.9C211.66 144.04 211.08 146.4 209.88 146.68C207.5 147.2 207.34 146.08 206.76 147.16C206.18 148.24 207.46 149.16 208.76 149.16C212.88 149.16 214.26 144.44 212.94 141.9C212.772 141.623 212.672 141.309 212.65 140.985C212.63 140.661 212.688 140.337 212.82 140.04C213.66 138.04 217.84 134.26 218.24 139.62C218.34 140.18 219.36 140.38 219.78 139.5ZM156.66 141.76C156.66 141.04 156.22 138.94 154.54 138.9C152.54 138.9 152.24 141.88 153.68 143.34C154.54 144.24 156.18 144.44 156.66 141.76Z" fill="#FFC6A6"/>
    <path d="M124.34 290.82C130.18 294.82 129.28 291 126.46 309.96C125.093 318.14 123.177 326.218 120.72 334.14C120.16 335.78 121 329.44 120.72 322.72C120.44 313.6 111.04 298.36 110.04 298.72C108.04 299.38 112.04 301.72 116.92 315.24C120.26 324.72 118.5 337.76 116.16 341.24C113.12 345.72 110.48 347.62 102.82 346.46C99.3837 345.942 96.1782 344.417 93.6082 342.079C91.0381 339.74 89.2187 336.692 88.3799 333.32C87.2999 328.88 85.5399 323.76 86.3799 318.38C90.3799 289.58 87.9799 302.92 92.9799 309.8H93.8799C93.5999 307.62 93.3999 307.8 90.7199 299C89.8799 296.2 89.8599 295.8 88.9799 295.24C85.1999 292.88 85.8999 292.5 85.1599 288.5C84.6999 286.08 81.7199 286.72 82.0999 283.32C82.2037 282.362 82.0619 281.392 81.6874 280.504C81.3131 279.614 80.7186 278.835 79.9599 278.24C78.5799 276.94 78.8999 273.1 81.2999 270.6C85.5799 266.16 86.0599 264.18 90.2199 261.1C90.8799 260.6 91.0399 260.78 97.1999 259.34C98.5399 259.02 97.7199 258.7 100.54 258.2C108.08 256.84 109.98 254.2 109.9 255.88C109.727 257.233 109.181 258.51 108.323 259.57C107.464 260.63 106.327 261.43 105.04 261.88C103.419 262.823 101.703 263.595 99.9199 264.18C87.9199 266.9 88.5599 274.94 90.5199 272.64C93.0799 269.64 92.6999 269.02 93.6599 270.78C94.3799 272.1 94.0199 271.5 91.6599 273.62C89.6599 275.42 82.9799 280.82 86.2199 280.34C86.6799 280.34 86.9399 280.04 91.1799 276.48C94.1999 273.92 95.4199 271.62 105.18 271.52C110.8 271.52 115.18 268.94 119 268.2C120.46 267.9 120.08 272.58 109.84 275.34C107.605 276.235 105.287 276.905 102.92 277.34C101.048 277.434 99.2419 278.065 97.7199 279.16C96.3199 280.48 95.2799 281.16 95.9999 281.9C96.2599 282.18 96.4999 282.4 96.8799 282C99.2999 279.48 101.8 279.6 106.88 278.58C108.4 278.28 108.08 277.52 110.5 277.28C112.975 276.855 115.426 276.293 117.84 275.6C119.84 275.6 118.3 279.84 107.84 283.88C102.78 285.88 100.4 286.42 98.6199 289.08C98.1399 289.8 97.7399 290.88 98.6199 291.28C100.08 291.94 99.1999 288.88 104.42 286.98C105.32 286.66 105.54 286.58 105.86 290.58C106.54 299.26 103.34 303.06 103.08 306.58C103.08 307.06 103.64 307.68 104.24 306.94C105.148 304.982 105.956 302.98 106.66 300.94C111.14 287.54 100.66 283.18 114.66 287.48C121 289.44 121.88 289.14 124.34 290.82Z" fill="#FFC6A6"/>
    <path d="M91.9604 250.2C94.6804 249.58 92.4204 255.46 87.4404 258.2C83.4404 260.46 83.0404 260.68 82.4804 261.36C81.9204 262.04 82.4804 262.9 83.0004 262.72C86.2804 261.76 91.7204 255.9 80.5604 268.72C77.9204 271.76 78.3204 271.98 77.9604 269.3C77.9842 268.282 78.0779 267.267 78.2404 266.26C78.7404 263.88 76.1204 258.26 78.9204 256.48C82.5439 254.277 86.3924 252.467 90.4004 251.08C90.8824 250.723 91.4062 250.428 91.9604 250.2Z" fill="#FFC6A6"/>
    <path d="M141.64 102C141.64 101.72 143.24 94.0003 145.2 91.1803C147.16 88.3603 153.88 81.1803 153.88 81.1803C153.88 81.1803 158.88 83.7803 159.34 79.1803C159.34 79.1803 161.22 80.9603 163.34 77.6603C165.46 74.3603 171 74.7003 173 75.5803C175 76.4603 180.5 77.4603 183.54 82.5603C186.58 87.6603 197 105.44 198.86 108C200.72 110.56 206.62 118 202.24 119.26L194.24 114.7C194.24 114.7 191.46 106.56 184.48 105.4C177.5 104.24 169.2 103.54 165.8 109.4C165.8 109.4 159.1 105.4 154.44 109.66C154.44 109.66 153.38 103.4 147.56 102.42C141.74 101.44 141.64 102 141.64 102Z" fill="#FFC6A6"/>
    <path d="M7.70039 140.36L6.76039 134.7L11.2604 138.5L17.0604 135.78L15.1004 142.24L19.2204 148.24L12.3404 147.06L9.62039 153.14L7.88039 145.84L1.90039 143L7.70039 140.36Z" fill="#FFEAB6"/>
    <path d="M295.76 138.66C286.42 146.1 285.42 160.36 280.72 156.94C275.34 152.94 271.9 148.76 271.74 142.76C271.74 141.1 270.84 139.48 269.24 140.08C267.94 140.647 266.603 141.128 265.24 141.52C260.66 142.72 260.84 138.56 258.72 140.5C257.867 141.09 257.068 141.76 256.34 142.5C255.68 143.1 256 142.76 254.48 141.62C252.96 140.48 250.76 142.04 251.06 142.92C251.207 143.134 251.42 143.292 251.667 143.368C251.913 143.444 252.18 143.434 252.42 143.34C253.6 142.82 253.78 143.94 254.98 144.9C256.98 146.52 258.56 141.24 260.28 142.46C263.14 144.46 264.44 143.78 268.8 142.3C271.5 141.4 266.32 147.38 277.14 156.56C283.14 161.7 284.16 160.08 288.86 150.68C290.58 147.24 293.96 141.64 297.02 139.76C298.28 138.98 299.76 138.58 302.84 140.76C310.06 145.88 306.84 147.18 305.9 149.4C305.74 149.8 306.6 150.52 306.98 150C309.36 146.74 308.7 147.76 309.2 146.18C308.34 141.22 300.24 135.1 295.76 138.66Z" fill="#000001"/>
    <path d="M292.76 113.16C292.6 112.16 292.28 111.16 292.08 110.18C292.057 109.943 291.962 109.719 291.808 109.537C291.655 109.355 291.45 109.224 291.22 109.16C290.44 108.92 290.34 109.36 287.66 112.54C285.28 115.36 286.7 114.88 280.86 113.44C280.538 113.497 280.233 113.626 279.967 113.816C279.7 114.006 279.478 114.254 279.32 114.54C278.92 115.12 278.96 115.34 280.74 118.22C282.26 120.68 282.74 120.08 282.02 121.14C278.24 126.8 276.54 128.66 283.5 126.12C287.5 124.68 287.34 124.46 287.92 125.04C290.62 127.74 294.34 132.3 294.56 128.48C294.655 126.982 294.423 125.48 293.88 124.08C293.6 122.64 299.1 121.9 299.42 119.84C299.447 119.751 299.455 119.657 299.445 119.564C299.433 119.472 299.405 119.382 299.357 119.301C299.31 119.221 299.248 119.151 299.172 119.095C299.097 119.04 299.012 119.001 298.92 118.98C291.3 116.28 293.66 118.92 292.76 113.16ZM292.86 122.1C290.86 123.58 292.74 124.82 292.58 126.9C291.02 126.24 289.26 122.9 286.94 122.9C282.76 124.3 282.5 124.9 281.76 124.9C282 123.4 285.52 120.36 283.52 118.74C282.74 118.14 280.8 115.28 281.78 115.5C285.66 116.4 285.64 116.58 286.38 116.06C290.28 113.38 290.38 109.26 291.1 114.9C291.72 119.98 290.46 117.9 296.08 119.94C297 120.32 294.12 121.18 292.86 122.1Z" fill="#000001"/>
    <path d="M267.8 80.6398C267.96 88.6398 272.98 92.6398 264.58 91.5598C251.7 89.8798 249.12 86.7798 250.34 96.1398C250.5 97.3998 250.56 96.9998 244.34 99.5198C241.22 100.8 242.64 102.38 244.34 101.72C250.02 99.3998 252.52 99.0598 252.34 96.5798C251.94 92.1998 251.38 91.4198 253.04 91.6998C264.26 93.4998 266.16 93.9198 268.18 93.6998C276.06 92.8598 266.02 80.3198 271.4 77.6998C275.18 75.8198 276.44 78.8198 294.58 86.0398C295.58 86.4398 296.58 86.8398 296.9 85.8998C297.22 84.9598 296.3 84.8998 295.8 84.6998C277.8 77.3198 279.64 76.9598 275.8 75.6998C274.955 75.3043 274.025 75.1255 273.093 75.1793C272.162 75.2331 271.258 75.518 270.465 76.0081C269.672 76.4983 269.012 77.1783 268.547 77.987C268.082 78.7955 267.825 79.7071 267.8 80.6398Z" fill="#000001"/>
    <path d="M275.56 56.1401C274.06 58.6001 270.58 63.96 273.8 63.16C275 62.88 277.3 62.4401 277.8 62.2401C280.86 61.2001 280.96 60.7801 281.38 61.2201C285.38 65.2201 288.24 69.6001 288.04 62.2801C287.92 58.8401 287.16 58.28 288.14 57.9001C289.44 57.34 292.02 55.9001 292.74 55.72C295.2 54.9801 295.32 53.3801 294.26 52.9001C293.2 52.4201 290.26 51.8601 288.44 51.0801C285.54 49.7801 286.78 51.5601 284.92 44.2001C284.877 43.9811 284.765 43.7815 284.6 43.6299C284.437 43.4782 284.228 43.3824 284.007 43.3557C283.785 43.3291 283.56 43.3732 283.365 43.4817C283.17 43.5902 283.015 43.7577 282.92 43.9601C282.68 44.2801 281.84 45.4801 279.28 49.2401C278.68 50.1401 272.94 47.1201 272 48.2401C269.64 50.9801 276.34 54.8601 275.56 56.1401ZM277.96 51.0601C279.96 51.6401 279.6 51.3601 283.24 46.4601C284.4 44.8801 283.66 52.0201 286.36 52.2601C287.28 52.2601 288.6 53.3801 290.74 53.8601C290.912 53.9224 291.073 54.0101 291.22 54.1201C291.12 54.2601 291.04 54.4401 290.9 54.5C285.86 57.1 285.52 56.7801 285.82 58.5001C286.58 63.2401 286.4 62.5001 286.28 63.3201C280.94 58.4801 283.06 59.1001 282.28 58.9601C280.8 58.7401 278.04 60.4 275.38 60.96C274.46 60.96 274.82 60.7601 277.12 56.9601C279.6 52.8601 267.24 48.0001 277.96 51.0601Z" fill="#000001"/>
    <path d="M228.28 60.7204C228.19 61.5014 228.265 62.2924 228.5 63.0425C228.733 63.7929 229.123 64.4859 229.64 65.0772C230.158 65.6685 230.793 66.145 231.507 66.4762C232.22 66.8074 232.993 66.986 233.78 67.0004C236.7 67.2604 237.88 64.7604 238.98 65.0004C241.44 65.4804 243.4 62.7604 243.48 60.8204C243.48 59.8004 244.24 59.1204 244.64 58.1404C245.04 57.1604 244.52 56.5404 245.04 56.3804C245.805 55.854 246.422 55.1397 246.832 54.3062C247.242 53.4727 247.43 52.5479 247.38 51.6204C247.38 51.3604 248.06 50.4404 247.38 49.6204C247.24 49.4404 247.92 48.3604 248.08 48.2004C248.24 48.0404 267.28 49.5604 270.62 32.7804C275.5 8.26036 236.12 -1.65962 228.78 21.9004C224.78 34.5804 235.18 41.3004 234.56 42.6004C232.94 45.9404 231.9 44.6004 231.3 46.0604C229.7 49.7604 231.3 49.3004 230.44 49.7604C227.56 51.2404 229.16 53.0604 228.16 53.7604C227.38 54.3337 226.85 55.186 226.683 56.1399C226.515 57.0935 226.722 58.0754 227.26 58.8804C228.04 59.8004 228.44 60.0004 228.28 60.7204ZM233.92 64.9404C231.6 64.3804 231.32 64.3404 229.92 61.5004C229.74 61.1404 230.18 61.2004 230.56 61.3604C236.08 63.6404 237.62 64.0004 233.92 64.9404ZM233 37.3404C223.38 22.0804 237 9.82036 247.54 10.4004C272.32 10.2604 277.66 42.8604 251.9 45.8004C248.54 46.2004 247.9 45.2404 246.86 46.5804C244.98 49.2404 246.2 50.4404 244.66 50.0404C241.515 49.2372 238.518 47.941 235.78 46.2004C233.24 44.6604 237.78 44.2004 236.46 41.3404C235.14 38.4804 235.16 40.6604 233 37.3404ZM233.1 46.4604C243.7 54.4604 247.9 50.3404 244.7 54.0604C244.1 54.7604 241.78 53.5804 240.9 53.2604C236.7 51.6804 229.56 49.4004 233.18 46.4604H233.1ZM230.66 51.6204C230.98 51.3804 230.82 50.7004 231.28 50.7404C232.08 50.7404 231.02 51.5804 236.32 53.7004C241.62 55.8204 242.08 56.0604 243.12 56.1604C244.16 56.2604 243 58.4604 241 58.4204C237.76 57.3004 228.08 53.7404 230.74 51.6204H230.66ZM228.66 55.6204C229.54 54.2604 228.82 55.8204 233.38 57.7804C238.32 59.9204 240.1 60.7204 241.38 60.5604C241.72 60.5604 241.7 60.8004 241.56 60.9804C240.74 62.0804 239.8 63.7004 238.26 62.7204C234.36 60.0004 226.64 58.8804 228.78 55.5404L228.66 55.6204Z" fill="#000001"/>
    <path d="M267.82 180.72C266.26 179.72 266.86 179.6 267.2 178.12C268.58 172.12 268.52 172.54 268.44 172.12C268.43 171.952 268.373 171.788 268.277 171.648C268.18 171.508 268.047 171.4 267.892 171.332C267.737 171.263 267.567 171.238 267.398 171.262C267.23 171.285 267.072 171.353 266.94 171.46C264.94 173.04 262.66 173.98 260.62 175.46C259.68 176.1 256.52 172.9 255.8 173.18C254.74 173.62 253.96 174.14 254.3 175.44C255.72 180.58 255.28 180.04 254.54 180.52C252.36 181.92 250.54 182.52 250.68 184.3C250.68 185.74 255.04 185.64 256.68 185.66C258.32 185.68 257.98 186.38 258.54 187.3C261.04 191.42 262.54 193.8 263.78 189.12C264.86 185.24 263.52 185.66 270.16 185.44C273 185.22 270.86 182.66 267.82 180.72ZM266.4 183.62C264.06 183.92 263.08 183.98 262.82 185.4C262.607 186.557 262.278 187.688 261.84 188.78C261.737 188.703 261.643 188.617 261.56 188.52C257.56 182.64 260.66 184.16 253.32 183.56C251.86 183.56 255.88 182.2 257.06 179.56C257.5 178.58 255.44 174.92 256.6 175.56C260.12 177.42 258.98 176.74 259.42 177C260.74 177.82 264.66 174.6 266.16 174.16C266.7 177.46 262.9 179.46 266.48 181.98C269 183.72 268.66 183.34 266.4 183.62Z" fill="#000001"/>
    <path d="M245.52 207.78C239.84 204.78 235.26 207.02 228.26 203.06C226.25 201.652 223.805 201 221.36 201.22C219.66 201.66 204.9 195.22 201.72 188.22C201.047 186.395 200.695 184.465 200.68 182.52C200.54 181 208.02 187.52 215.26 183.96C215.448 183.895 215.613 183.777 215.735 183.62C215.858 183.463 215.933 183.275 215.952 183.078C215.97 182.88 215.933 182.68 215.842 182.503C215.752 182.327 215.612 182.18 215.44 182.08C212.818 180.98 210.608 179.083 209.12 176.66C208.88 176.26 208.6 175.46 209.52 176.08C217.66 181.62 228.34 175.7 225.08 174.08C222.182 173.345 219.608 171.672 217.76 169.32C217.36 168.82 217.76 168.9 218 169.04C224 171.72 232.44 171.34 237.2 166.76C239.68 164.36 231.72 163.34 229.98 153.98C228.24 144.62 233.98 138.48 234.98 122.5C235.5 114.18 229.3 98.7601 225.38 93.0001C214.72 77.3601 199.38 69.7201 180.24 64.2801C175.71 63.2373 170.987 63.3679 166.52 64.6601C165.72 64.9801 165.9 66.3001 166.86 66.1601C173.768 64.6349 180.99 65.5244 187.32 68.6801C195.12 72.3601 210.54 75.8401 222.24 92.3001C247.92 128.3 216.24 146.3 232.1 162.74C235.44 166.2 235.92 165.64 234.34 166.58C231.507 168.165 228.287 168.922 225.045 168.767C221.802 168.612 218.668 167.548 216 165.7C214.76 164.9 213.48 165.7 214.14 167.2C216.92 173.92 223.68 174.8 221.94 175.4C212.74 178.5 209.02 172.86 207.72 172.14C204.96 170.66 204.46 176.66 212.06 182.44C213.64 183.64 200.36 182.62 200.48 178.28C201.58 141.72 198.06 157.76 208.68 156.28C217.5 155.02 227.68 142.52 225.24 133.7C223.6 127.84 218.18 128.52 216.82 127.54C203.64 118.08 196.64 115.16 192.82 109.16C188.3 102.08 171.44 99.6401 165.5 107.98C165.28 108.3 165.1 108.38 164.8 107.98C164.252 107.321 163.572 106.782 162.807 106.395C162.04 106.009 161.203 105.783 160.347 105.732C159.49 105.682 158.633 105.807 157.827 106.101C157.022 106.395 156.283 106.85 155.66 107.44C155.4 107.72 155.28 107.72 155.18 107.32C154.14 103.04 148.32 101.02 143.54 100.76C142.8 100.76 142.66 101.02 144.58 96.0401C144.94 95.1201 147.02 94.9201 150.1 97.1201C152.88 98.8401 150.94 92.4001 146.52 92.5001C144.52 92.5001 152.36 83.9201 153.58 82.5001C154.22 81.7801 154.4 83.0201 155.98 83.1601C156.64 83.1601 157.06 82.1201 156.26 81.5001C146 73.5001 156.88 57.0601 166.56 62.3601C168.56 63.5001 169.54 61.3801 167.6 60.3601C160.76 57.0201 153.02 61.5801 150.86 69.0601C150.58 69.9801 150.52 68.9201 145.86 70.0001C143.773 70.4929 141.853 71.5298 140.298 73.0053C138.742 74.4808 137.603 76.3423 137 78.4001C136.73 79.3443 136.203 80.1956 135.48 80.8601C130.88 85.8201 133.08 92.1401 138.32 93.7201C138.7 93.8401 140.2 94.0201 140.32 93.3201C140.64 92.1601 139.7 92.1401 138.96 91.9201C131.96 89.8201 136.06 80.4001 136.84 83.7401C137.62 87.0801 142.14 91.2801 143.12 89.5601C144.1 87.8401 136 85.7601 139 78.2601C141.36 72.2601 150.3 70.2601 150.28 72.6001C150.16 80.0001 153.44 80.6001 152.64 81.4401C148.64 85.6201 146.64 87.1001 144.18 92.3001C144.003 92.7488 143.668 93.1183 143.24 93.3401C140.22 94.7401 139.1 99.3401 140.26 98.6601C142.74 97.0001 141.94 97.1001 141.32 100.2C141.02 101.66 139.02 100.32 133.98 103.04C125 108 129.36 119.78 137 125C139.9 127 131.28 129.78 139.84 150.32C139.88 150.386 139.903 150.461 139.908 150.538C139.913 150.616 139.9 150.693 139.868 150.764C139.837 150.834 139.788 150.896 139.728 150.945C139.668 150.993 139.597 151.025 139.52 151.04C136.375 152.456 132.97 153.205 129.52 153.24C128.32 153.12 128.36 154.44 128.72 155.4C131.7 163.4 139.96 164.14 138.4 165.06C132.1 168.82 132.24 168.12 130.56 168.52C130.25 168.55 129.965 168.702 129.767 168.942C129.568 169.182 129.473 169.49 129.5 169.8C129.36 171.42 130.62 172.34 132.38 173.6C139.9 178.96 147.3 175.6 147.68 175.96C147.088 177.977 146.133 179.867 144.86 181.54C142.1 185.04 149.96 185.54 156.5 181.42C156.618 181.39 156.742 181.39 156.86 181.42C156.637 182.873 156.315 184.31 155.9 185.72C154.94 188.9 152.52 187.72 151.6 191.02C150.78 194.08 135.26 198.36 133.24 199.64C132.58 200.04 133.06 200.34 127.02 188C118.46 170.58 119.02 170.6 116.82 171.34C111.7 172.98 113.48 173.84 110.28 167.34C108.64 164 71.2204 173.76 59.7404 187.42C57.3204 190.42 58.7804 191.16 59.6004 190.42C60.0604 190.02 63.2604 183.7 81.2604 175.92C89.7992 172.22 98.8129 169.728 108.04 168.52C109.08 168.4 108.66 168.1 110.72 172.66C111.24 173.82 61.2404 189.24 60.0004 190.82C58.7604 192.4 56.0004 191.9 56.8404 191.26C57.0262 191.133 57.1565 190.942 57.2049 190.722C57.2532 190.502 57.2159 190.273 57.1004 190.08C53.1004 180.82 48.5404 180.08 49.1004 178.08C49.1004 177.7 47.3404 173.56 47.6604 172.96C47.9804 172.36 57.4204 180.76 57.1004 186.3C57.1004 187.7 59.3404 188.3 58.9804 185.74C57.9604 178.24 47.9804 168.04 45.3404 171.28C44.8804 171.82 46.8204 175.76 46.8604 176.94C45.5804 176.56 38.5604 170.94 36.3404 173.72C35.8404 174.32 36.0804 174.4 39.2004 180.16C39.9804 181.62 37.7404 179.98 35.5204 178.66C28.8604 174.66 31.5204 178.52 35.0604 186.02C74.4804 267.2 77.6204 272.02 77.2204 274.26C77.0172 275.457 77.1259 276.685 77.5357 277.827C77.9457 278.968 78.643 279.987 79.5604 280.78C79.8705 281.1 80.094 281.493 80.2094 281.925C80.3249 282.355 80.3287 282.808 80.2204 283.24C80.0004 288.18 83.5404 287.38 83.5004 290.14C83.5217 292.015 84.2337 293.817 85.5004 295.2C88.5404 297.42 87.2404 293.08 84.5404 317.88C83.7804 324.82 85.9404 330.48 87.1204 334.78C89.6204 343.74 99.1204 348.66 105.72 348.78C106.4 348.78 106.68 348.54 105.72 351.52C102.66 361.1 106.54 363.08 101.94 368.96C101.127 370.142 100.656 371.527 100.58 372.96C100.606 373.152 100.697 373.328 100.837 373.46C100.978 373.592 101.159 373.672 101.352 373.687C101.544 373.7 101.735 373.648 101.894 373.537C102.052 373.427 102.167 373.265 102.22 373.08C103.18 369.5 106.22 367.94 106.34 362.94C106.34 362.06 106.46 356.54 106.66 355.7C108.44 348 108.06 348.8 109.08 348.64C115.58 347.6 116.96 343.96 120.62 339C123.18 335.52 128.62 312.32 130.32 295.98C130.32 295.34 130.32 294.68 130.9 294.24C131.48 293.8 134.36 275.94 134.3 274.24C134.3 273.58 133.14 273.32 132.9 273.92C132.24 275.5 131.24 285.3 129.98 291.8C129.84 292.6 129.52 292.1 126.52 289.98C122.52 287.14 121.94 287.82 116.96 286.4C108.96 284.06 110.96 285.24 115.42 282.4C121.42 278.52 121.02 274.9 120.34 274.04C119.66 273.18 117.5 273.68 120.34 272.86C146.8 265.2 156.94 262.32 160.56 260.86C163.06 259.9 162.56 259.62 161.96 258.98C161.96 258.98 158.16 251.26 133.96 202C133.6 201.24 133.38 201.52 138.18 200C138.5 200 138.6 200 138.66 200.34C139.853 205.57 142.65 210.297 146.66 213.86C157.4 222.88 161.34 219.74 162.16 221.12C168.98 232.74 165.5 205.5 164.16 289.4C164.16 321.3 166.98 319.4 170.78 328.74C171.08 329.44 172.78 336.74 173.96 338.04C185.66 351.9 195.02 351.66 205.3 343.28C213.92 336.26 228.38 313.56 229.5 314.42C230.62 315.28 232.46 315.36 234.22 316.56C236.6 318.18 240.32 319.76 243.06 318.96C245.32 318.3 244.72 319.86 256.46 285.36C257.08 283.52 255.92 300.36 252 315.7C246.6 336.78 238 348.82 240 356.86C240.8 359.98 239.42 361.1 240 366.22C242 381.02 241.02 380.08 242.62 380.22C244.22 380.36 242.44 368.72 242.3 368.04C241.08 361.82 242.66 360.04 241.84 356.6C239.72 347.82 251.38 333.7 256.56 302.86C258.84 289.36 257.1 284.1 261.72 271.04C267.48 254.88 271.2 243.5 268.5 226.46C266.5 214 262.64 216.82 245.52 207.78ZM58.2004 193.78C64.4404 193.78 54.7404 179.98 88.9404 248.64C89.5404 249.86 87.3404 250.54 86.0604 250.78C85.3004 250.28 86.9804 253.06 68.6604 216.16C57.0004 192.82 57.0004 193.76 58.2004 193.76V193.78ZM38.4404 175.2C41.1004 174.88 52.4404 182.62 55.1804 190.34C50.5207 188.022 46.0474 185.348 41.8004 182.34C41.4204 180.72 38.7804 176.36 38.4404 175.18V175.2ZM76.3004 266.48C75.6404 265.52 34.3004 180.84 34.0204 180.14C34.3404 180.02 33.2604 179.48 50.7804 189.94C56.4004 193.3 53.1404 189.04 62.6404 208.32C84.9204 253.52 84.5004 251.44 83.5404 251.78C71.5604 255.88 77.5204 263.74 76.3004 266.46V266.48ZM77.9604 269.36C77.9842 268.342 78.0779 267.325 78.2404 266.32C78.7404 263.94 76.1204 258.32 78.9204 256.54C82.5439 254.337 86.3924 252.527 90.4004 251.14C90.8802 250.77 91.4042 250.46 91.9604 250.22C94.6804 249.62 92.4204 255.48 87.4404 258.22C83.4404 260.48 83.0404 260.7 82.4804 261.38C81.9204 262.06 82.4804 262.92 83.0004 262.74C86.2804 261.78 91.7204 255.92 80.5604 268.74C77.9204 271.8 78.3204 272 77.9604 269.34V269.36ZM93.2804 257.36C93.6204 258.2 93.5004 258.06 90.3804 258.68C90.3804 258.68 90.3804 258.68 90.3804 258.52C92.1204 257.46 92.3804 256.26 92.7204 256.34C93.0604 256.42 93.0004 256.74 93.2804 257.42V257.36ZM109.76 275.24C107.526 276.135 105.208 276.805 102.84 277.24C100.968 277.333 99.1625 277.965 97.6404 279.06C96.2404 280.38 95.2004 281.06 95.9204 281.8C96.1804 282.08 96.4204 282.3 96.8004 281.9C99.2204 279.38 101.72 279.5 106.8 278.48C108.32 278.18 108 277.42 110.42 277.18C112.896 276.755 115.346 276.193 117.76 275.5C119.76 275.5 118.22 279.74 107.76 283.78C102.68 285.78 100.32 286.32 98.5404 288.98C98.0604 289.7 97.6604 290.78 98.5404 291.18C100 291.84 99.1204 288.78 104.34 286.88C105.24 286.56 105.46 286.48 105.78 290.48C106.46 299.16 103.26 302.96 103 306.48C103 306.96 103.56 307.58 104.16 306.84C104.76 306.1 106.38 301.36 106.58 300.84C111.06 287.44 100.58 283.08 114.58 287.38C121 289.38 121.8 289.04 124.26 290.72C130.1 294.72 129.2 290.9 126.38 309.86C125.013 318.04 123.097 326.118 120.64 334.04C120.08 335.68 120.92 329.34 120.64 322.62C120.36 313.5 110.96 298.26 109.96 298.62C107.96 299.28 111.96 301.62 116.84 315.14C120.18 324.62 118.42 337.66 116.08 341.14C113.04 345.62 110.4 347.52 102.74 346.36C99.3044 345.842 96.0987 344.318 93.5287 341.978C90.9585 339.64 89.1392 336.592 88.3004 333.22C87.2204 328.78 85.4604 323.66 86.3004 318.28C90.3004 289.48 87.9004 302.82 92.9004 309.7H93.8004C93.5204 307.52 93.3204 307.7 90.6404 298.9C89.8004 296.1 89.7804 295.7 88.9004 295.14C85.1204 292.78 85.8204 292.4 85.0804 288.4C84.6204 285.98 81.6404 286.62 82.0204 283.22C82.1244 282.262 81.9824 281.292 81.608 280.403C81.2335 279.515 80.639 278.735 79.8804 278.14C78.5004 276.84 78.8204 273 81.2204 270.5C85.5004 266.06 85.9804 264.08 90.1404 261C90.8004 260.5 90.9604 260.68 97.1204 259.24C98.4604 258.92 97.6404 258.6 100.46 258.1C108 256.74 109.9 254.1 109.82 255.78C109.648 257.133 109.102 258.412 108.243 259.47C107.385 260.53 106.248 261.33 104.96 261.78C103.339 262.725 101.623 263.495 99.8404 264.08C87.8404 266.8 88.4804 274.84 90.4404 272.54C93.0004 269.54 92.6204 268.92 93.5804 270.68C94.3004 272 93.9404 271.4 91.5804 273.52C89.5804 275.32 82.9004 280.72 86.1404 280.24C86.6004 280.24 86.8604 279.94 91.1004 276.38C94.1204 273.82 95.3404 271.52 105.1 271.42C110.72 271.42 115.1 268.84 118.92 268.1C120.38 267.86 120 272.54 109.76 275.3V275.24ZM95.9604 270.8C95.7004 270.56 95.8204 270.94 94.6804 268.62C94.4204 268.06 94.8604 267.9 97.6604 267.04C98.0204 266.92 98.3404 267.58 99.1604 269.4C99.3404 269.88 99.0004 270 95.9604 270.86V270.8ZM159.2 259.28C157.6 259.78 121.7 270.42 121.64 270.44C121.22 270.56 120.88 270.6 121.08 270.2C121.94 268.36 121.08 265.66 118.82 266.2C111.34 267.78 112.62 269.5 101.82 269.52C101 269.52 101.36 269.76 99.8204 266.72C99.6604 266.4 99.8204 266.2 100.1 266.12C102.248 265.478 104.305 264.565 106.22 263.4C113.3 259.94 113.22 250.96 107.62 253.82C105.021 255.007 102.267 255.822 99.4404 256.24C98.1834 256.633 96.9484 257.095 95.7404 257.62C95.1804 257.82 94.3004 255.62 94.0404 254.96C93.7804 254.3 96.6404 247.78 92.5404 247.88C89.0404 248.82 93.6404 252.2 63.0404 192.38C62.2404 190.82 61.4204 191.66 74.4804 187.34C79.7804 185.6 111.26 175.18 117.18 173.04C117.74 172.84 117.18 172 124.1 186.14C160.12 260.58 160.68 258.88 159.2 259.34V259.28ZM203.66 122.62C203.66 121.82 203.26 121.82 213.06 128.18C214.34 129 211.36 128.66 208.32 132.18C207.74 132.86 207.72 132.82 206.88 132.42C203.24 130.8 203.14 126.84 203.66 122.68V122.62ZM168.36 108C172.36 104.72 185.36 104.8 190.36 110.46C194.72 115.42 183.92 133.56 173.26 126.1C168.14 122.52 163.38 112 168.36 108ZM142.52 117.08C142.52 116.08 141.4 103.64 143.02 103.72C146.062 103.612 149.068 104.405 151.66 106C155.96 108.82 151.08 128.3 140.6 124.44C139.48 124 142.44 121.38 142.52 117.08ZM137 104.7C138.04 104.38 139 104.14 140.16 103.86C140.52 103.86 140.7 103.86 140.66 104.26C139.62 113.28 142.54 115.84 139.08 122.76C138.68 123.6 138.6 123.64 137.92 123.1C129.54 116.26 127.2 107.76 137 104.7ZM140.7 126.7C142.518 127.102 144.413 126.998 146.175 126.398C147.938 125.799 149.503 124.727 150.7 123.3C151.84 122.14 150.7 126.56 156.3 127.58C157.46 127.8 157.9 126.38 157.2 126.04C155.5 125.18 153.9 124.78 152.98 121.92C152.26 119.7 159.18 121.48 158.98 116.28C158.98 114.9 157.64 114.86 157.34 116.1C156.8 118.24 157.34 117.92 154.14 118.52C153.86 118.52 153.78 118.52 153.88 118.18C155.64 112.64 155.08 111.06 156.88 109.72C157.66 109.264 158.548 109.026 159.45 109.031C160.353 109.036 161.238 109.283 162.013 109.747C162.788 110.211 163.423 110.875 163.855 111.669C164.285 112.463 164.495 113.358 164.46 114.26C164.72 120.8 171.06 130.38 178.46 130.1C188.94 129.68 191.96 118.88 193.86 117.7C195.12 116.9 196.44 117.4 201.76 120.66C203.32 121.6 198.78 131.08 206.18 134.32C206.96 134.66 205.26 135.7 207.16 136.32C207.46 136.32 208.54 134.54 210.26 133.1C218.7 125.96 228.68 131.76 220.26 145.24C218.58 147.9 216.9 150.2 209.56 153.24C200.02 157.24 198.88 132.82 198.7 177.24C198.7 189.84 200.06 193.62 217.76 202.2C218.46 202.54 212.32 207.12 212.28 207.14C201.62 214.78 207.88 211.14 196.08 215.88C194.08 216.64 185.82 220.06 185.68 218.8C184.08 205.42 180.88 202.36 178.68 194.52C176.68 187.6 174.44 185.84 174.24 183.52C173.96 180.12 166.24 173.52 165.3 172.32C164.96 171.92 165 171.76 165.5 171.58C188.04 164.24 184.62 158.66 182.34 160C177.7 162.7 156.92 170.14 147.24 159.04C136.5 147.08 136.26 125.42 140.66 126.78L140.7 126.7ZM147 182C148.408 179.508 149.408 176.808 149.96 174C150.012 173.797 149.997 173.582 149.92 173.387C149.842 173.192 149.705 173.027 149.528 172.913C149.352 172.8 149.143 172.747 148.933 172.758C148.723 172.77 148.523 172.848 148.36 172.98C141.42 177.66 129.18 170.32 132.08 170.1C133.82 169.96 145.5 164.58 139.86 162.7C133.2 160.48 130.18 155.32 130.98 155.08C134.105 154.873 137.17 154.129 140.04 152.88C142.68 151.62 140.04 157.88 152.34 165.46C151.782 166.083 151.472 166.892 151.472 167.73C151.472 168.568 151.782 169.377 152.34 170C155.78 174.2 158.34 176 158.16 176.4C157.86 177.04 158.16 177.92 157.38 178.4C154.4 180.42 150.44 182.7 147 182ZM160.16 218.34C151.1 216.92 142.26 207.96 140.44 200.44C140.1 199.02 139.86 199.16 141.38 198.64C145.84 197.06 148.14 195.36 147.58 196.36C146.46 198.36 147.26 200.94 147.12 201.86C146.6 205.32 149 208.24 152.46 210.08C152.92 210.32 152.76 210.28 155.82 210.48C157.82 210 158.08 209.8 158.32 210.48C158.758 211.478 159.1 212.517 159.34 213.58C160.14 218 161.18 218.58 160.14 218.42L160.16 218.34ZM218.7 324.56C216.898 326.998 214.948 329.323 212.86 331.52C210.04 334.78 207.78 338.42 203.32 341.84C192.88 349.84 185.06 347.84 175.96 337.18C174.583 334.837 173.603 332.283 173.06 329.62C171.76 324.36 169.44 322.9 167.82 316.94C163.58 301.36 168.2 226.08 168.62 225.7C170.34 224.12 167.66 224.9 163.8 219.86C160.66 215.86 162.12 211.58 155.8 201.3C155.675 201.022 155.487 200.777 155.25 200.582C155.015 200.388 154.738 200.25 154.44 200.18C153.22 199.98 154.22 201.56 154.78 202.8C155.62 204.62 153.9 203.46 153.58 203.44C152.76 203.34 152.2 204.28 155 205.92C155.34 206.12 156.26 206.14 156.5 206.46C156.735 206.907 156.903 207.385 157 207.88C157 208.16 157 208.24 156.74 208.26C154.54 208.52 153.58 208.98 151.76 207.44C150.72 206.56 148.86 204.56 148.9 203.2C149 199.2 148.32 197.2 151.76 195.2C153.1 194.46 153.34 193.2 153.42 191.72C153.56 189 156.3 190.48 157.42 186.94C159.02 181.9 166.34 186.34 165.28 183.52C162.04 175.02 151.88 169.52 153.28 167.08C154.6 164.94 159.4 168.92 160.66 170.36C164.54 174.74 171.66 180.7 172.3 184.86C172.7 187.34 174.44 188.22 176.18 194.06C179.32 204.54 182.88 209 183.3 220.58C183.96 238.58 202.54 307.66 202.56 307.72C203.08 308.8 204.32 308.36 204.26 307.22C203.54 293.8 196.06 279 197.9 278.9C200.933 278.69 203.97 279.283 206.7 280.62C208.54 282 219.9 292.1 220.9 293.04C225.04 296.84 229.66 298.16 232.64 302.72C234.76 305.86 235.32 301.18 218.68 324.64L218.7 324.56ZM158.7 182.28C159.62 177.56 159.52 177.74 160.08 178.28C161.083 179.38 161.9 180.637 162.5 182C162.92 182.78 161.64 182.5 161.62 182.42C158.76 182.94 158.42 183.18 158.58 182.36L158.7 182.28ZM244.54 313.52C244.457 313.687 244.342 313.837 244.2 313.96C244.09 313.85 243.99 313.728 243.9 313.6C238.46 305.6 235.72 303.6 234.44 301.32C232.82 298.46 228.14 295.5 225.32 293.78C223.46 292.64 219.84 288.92 216.98 286.66C210.52 281.56 210.36 278.34 201.14 277.08C199.74 276.88 197.6 277.5 197.26 277.22C196.92 276.94 197.26 276.46 198.88 273.34C200.238 270.523 201.867 267.843 203.74 265.34C212.02 253.66 210.34 254.26 213.16 249.44C218.12 240.88 219.42 241.92 227.36 233.44C238.24 221.8 238.78 221.54 239.5 219.7C239.82 218.84 239.06 218.44 238.66 218.86C213.78 245.14 216.16 239.86 211.06 249.38C199.76 270.5 206.36 255.8 196.72 273.18C195.7 275 184.72 224.82 185.78 221.46C186.08 220.5 187.2 222.04 195.78 218.4C208.76 212.86 201.92 217.36 212.78 209.36C218.28 205.36 220.78 200.9 226.36 204.24C233.56 208.56 236.16 206.78 242.92 208.78C246.5 209.84 246.14 211.02 261.16 217.08C265.56 218.86 266.18 222.74 266.7 226.56C269.28 246.7 267.48 249.14 244.42 313.6L244.54 313.52Z" fill="#000001"/>
    <path d="M239.46 28.6601C239.82 28.6601 240.08 28.6601 239.96 29.2801C239.2 32.5401 243.62 35.2801 242.74 36.8601C241.543 39.1466 240.702 41.6011 240.24 44.1401C240.14 44.7401 240.68 44.4201 240.9 44.6001C241.74 45.3201 242.14 41.5601 244.3 37.5001C245.76 34.8001 241.52 32.1001 241.62 29.7801C241.74 26.8001 242.9 28.5001 245.62 29.3601C247.14 29.8401 248.3 29.3601 248.72 30.3601C248.992 30.8945 249.445 31.3136 250 31.5411C250.555 31.7688 251.172 31.7896 251.74 31.6001C253.58 31.1201 253.1 32.5401 255.26 33.0001C257.42 33.4601 257.4 33.3601 257.4 34.1601C257.4 34.4401 257.4 34.7401 257.06 34.8201C256.032 35.171 255.052 35.648 254.14 36.2401C253 36.7801 253.5 35.8601 251.6 37.1001C248.74 38.9601 249.22 37.7801 248.02 38.7201C246.02 40.3401 241.64 44.9601 243.04 46.0601C244.44 47.1601 244.6 44.2801 247.44 41.6801C250.28 39.0801 249.84 40.3401 250.8 39.6801C252.8 38.4401 253.08 38.2601 253.38 38.2401C255.1 38.1001 256.42 36.6601 257.72 36.5401C259.48 36.3801 259.02 34.8401 259.4 34.9601C259.78 35.0801 259.78 35.4601 259.92 35.8001C261.18 38.9401 265.1 31.5401 262.08 30.5601C259.06 29.5801 258.26 31.7001 257.78 31.5801C253.14 30.5401 256.02 31.1401 253.34 29.7601C252.1 29.1201 251.12 30.6201 250.12 29.2001C248.54 26.9201 249.68 29.2001 242.26 26.2401C241.74 26.0401 241.46 25.3201 241.06 24.8401C240.66 24.3601 240.04 24.3601 239.3 24.1601C237.2 23.6601 235.96 28.0001 239.46 28.6601ZM261.22 32.2401C261.84 32.4201 261.38 33.8801 260.82 33.5801C258.7 32.5001 260.48 32.0001 261.22 32.2401ZM239.22 25.7201C239.46 25.7201 239.88 26.4201 240.1 26.7601C239 27.6601 238.48 26.0001 239.2 25.7201H239.22Z" fill="#000001"/>
    <path d="M253.42 244.12C246.78 247.52 237.92 253.7 217.42 254.96C216.64 254.96 215.86 255.32 215.96 256.12C216.06 256.92 233.06 257.82 253.96 245.76C256.72 244.14 255.24 243.2 253.42 244.12Z" fill="#000001"/>
    <path d="M220.54 249.58C231.24 246.24 245 235.58 244.12 234.42C242.38 232.2 237.98 241.12 219.96 248.16C219.32 248.4 219.6 249.38 220.54 249.58Z" fill="#000001"/>
    <path d="M213 113.46C213.34 113.82 221.24 120.98 222.1 118.76C222.42 117.92 221.9 117.68 219.14 115.76C204.76 106 198.66 86.2402 191.82 82.0002C191.36 81.7202 190.98 82.8202 191.16 83.1602C192.732 84.8926 194.157 86.7522 195.42 88.7202C203.8 102.12 201.72 101.24 213 113.46Z" fill="#000001"/>
    <path d="M214.02 214.9C209.48 217.6 209.38 218.9 207.02 219.92C205.46 220.6 193.02 225.46 194.08 227.28C194.66 228.22 194.56 227.46 208.08 221.44C210.003 220.243 211.835 218.907 213.56 217.44C220.4 212.5 221.36 212.58 221.02 211.44C220.42 209.62 216.7 213.32 214.02 214.9Z" fill="#000001"/>
    <path d="M208.82 149.08C212.94 149.08 214.32 144.36 213 141.82C212.832 141.543 212.732 141.229 212.71 140.904C212.69 140.58 212.748 140.256 212.88 139.96C213.72 137.96 217.9 134.18 218.3 139.54C218.3 140.18 219.34 140.38 219.78 139.54C220.058 138.981 220.173 138.356 220.113 137.735C220.053 137.114 219.82 136.523 219.442 136.027C219.063 135.532 218.553 135.153 217.97 134.932C217.387 134.712 216.753 134.659 216.14 134.78C212.9 135.48 209.36 139.6 211.08 142.94C211.66 144.08 211.08 146.44 209.88 146.72C207.5 147.24 207.34 146.12 206.76 147.2C206.18 148.28 207.46 149.08 208.82 149.08Z" fill="#000001"/>
    <path d="M195 58.0001C195.12 56.6401 194.72 52.8201 198.1 51.9001C200.82 51.1401 202.32 51.4001 203.54 49.2801C204.58 47.4801 203.54 46.9201 204.52 45.0601C207.8 39.0601 206.12 39.9801 210.52 38.0601C222.28 32.8401 212.52 26.1801 211.48 29.5401C210.94 31.1601 211.98 32.0801 212.68 30.5201C213.04 29.7001 216.86 32.6601 212.36 35.1201C208.2 37.3801 206.18 37.3601 205.06 40.2201C203.94 43.0801 202.14 44.9001 202.2 47.5401C202.2 49.4201 200.46 49.3601 198.44 49.7601C196.842 50.1978 195.442 51.1721 194.477 52.5196C193.512 53.8671 193.04 55.5056 193.14 57.1601C193.18 60.7601 194.74 61.1201 195 58.0001Z" fill="#000001"/>
    <path d="M169.8 74.1402C168.507 74.1102 167.22 74.3548 166.028 74.8582C164.835 75.3615 163.762 76.112 162.88 77.0602C161.7 78.3202 162.88 79.4602 164.08 78.4402C164.975 77.5168 166.085 76.8318 167.312 76.4475C168.537 76.0632 169.84 75.992 171.1 76.2402C186.06 78.2402 187.1 96.7002 202.4 114.94C204.22 117.08 205.64 116.3 204.94 115.04C202.117 111.553 199.505 107.9 197.12 104.1C184.5 81.4602 183.28 76.1402 169.8 74.1402Z" fill="#000001"/>
    <path d="M171 92.6998C170.3 93.4398 169.78 95.0398 170.82 94.6998C172.26 94.1198 173.62 92.4198 177.24 92.4598C182.26 92.4598 184.08 99.8198 184.42 96.0798C184 90.1398 176.72 86.5598 171 92.6998Z" fill="#000001"/>
    <path d="M174.46 116.24C175.54 116.24 175.6 115.52 175.88 114.42C175.56 112.3 173.88 112.42 173.48 113.64C173.08 114.86 173.28 116.18 174.46 116.24Z" fill="#000001"/>
    <path d="M158.26 76.8001C158.26 78.1401 158.26 80.5801 159.64 80.3601C161.46 80.0801 158.46 76.6801 161.24 72.3601C161.548 71.7613 161.988 71.2388 162.523 70.8306C163.06 70.4225 163.68 70.1388 164.34 70.0001C164.572 69.9058 164.773 69.753 164.928 69.5565C165.082 69.3601 165.183 69.1271 165.22 68.8801C165.12 66.2401 158.18 69.1401 158.26 76.8001Z" fill="#000001"/>
    <path d="M145 2.72006C145.6 2.88006 146.46 2.02006 147.42 1.86006C148.86 1.62006 152.68 1.50006 153.42 2.96006C155.8 7.54006 147.74 13.2601 146.76 19.5801C146.14 23.5801 150.34 24.6201 156.76 26.4001C162.3 27.9201 151.98 34.9801 155.14 39.2401C155.66 39.9201 157.14 41.2401 158.34 42.5001C161.36 45.6601 157.44 49.8801 159.42 50.3001C161.4 50.7201 162.86 44.1201 159.42 40.7801C155.6 36.9401 155.2 38.2801 159.26 31.1801C160.32 29.3201 160.9 26.0601 158.58 25.0601C156.26 24.0601 156.58 24.8001 151.02 22.6401C142.54 19.3801 158.66 9.70006 154.84 2.16006C153.96 6.16806e-05 152.1 0.240062 149.56 6.19292e-05C144.44 -0.119938 144.26 2.52006 145 2.72006Z" fill="#000001"/>
    <path d="M156.66 141.76C156.66 141.04 156.22 138.94 154.54 138.9C152.54 138.9 152.24 141.88 153.68 143.34C154.54 144.24 156.18 144.44 156.66 141.76Z" fill="#000001"/>
    <path d="M149.36 112.86C149.2 110.86 147.62 110.86 147.36 111.62C146.1 113.88 148.72 116 149.36 112.86Z" fill="#000001"/>
    <path d="M115 182.48C69.42 197.66 71 196.48 72.3 199C81.56 218.26 81.24 217.36 82.9 217.54C87.46 216.22 124.66 203.88 124.9 203.76C127.46 202.88 125.98 201.48 119.14 187.6C116.74 182.56 116.82 181.88 115 182.48ZM123.64 202.18L83 215.6C82.52 215.6 83.18 216.74 74.14 198.86C73.68 197.96 71.26 199.18 99.8 189.62C104.76 187.96 109.48 186.3 114.78 184.56C116.16 184.12 115.06 182.76 120.78 194.56C124.4 202.24 124.56 201.88 123.66 202.18H123.64Z" fill="#000001"/>
    <path d="M112.68 200.72C112.42 200.72 86.5202 208.72 84.6802 209.6C83.7802 209.98 82.9602 211.18 84.0602 211.46C84.4202 211.46 113.68 202.92 115.22 201.14C114.42 199.66 113.74 200.68 112.68 200.72Z" fill="#000001"/>
    <path d="M88.5406 198.98C91.8406 198.4 91.7206 197.34 93.6606 197.44C97.3606 196.94 98.7606 195.44 102.121 194.6C105.481 193.76 106.441 194 109.061 192.6C109.701 192.28 110.141 191.16 108.781 190.88C108.541 190.88 107.001 191.34 104.781 191.9C96.8806 193.9 95.7806 195.38 93.7406 195.34C91.3806 195.34 91.4806 196.3 87.9606 197.08C79.9606 198.86 81.2606 199.62 79.1206 199.72C78.8606 199.72 78.4406 200.34 78.3606 200.58C78.1806 201.3 80.3606 201.72 81.4006 201.14C83.6256 199.982 86.0469 199.25 88.5406 198.98Z" fill="#000001"/>
    <path d="M95.3003 99.1802C98.2203 95.3002 96.5003 95.8602 106.12 99.1802C106.32 99.2728 106.545 99.2995 106.761 99.2563C106.978 99.2132 107.175 99.1023 107.324 98.9397C107.473 98.7772 107.567 98.5715 107.591 98.3522C107.616 98.133 107.57 97.9117 107.46 97.7202C106.407 95.4353 105.191 93.2297 103.82 91.1202C103 90.0802 107.22 85.5802 107.3 83.1202C107.42 79.5002 100 85.5202 98.3803 83.4002C97.0803 81.7002 95.1003 79.8202 93.8003 77.7602C93.2203 76.8202 92.1003 76.4802 91.9203 77.6002C90.3803 87.8202 92.8603 85.3002 87.1603 87.5002C83.9803 88.7402 83.8803 88.7202 83.7003 89.7402C83.1403 92.9602 90.5803 93.4202 90.6003 94.8802C90.7203 101.46 90.4603 101.06 90.6003 102.44C90.6284 102.625 90.7061 102.799 90.8249 102.944C90.9439 103.089 91.0996 103.199 91.2758 103.262C91.4519 103.326 91.6419 103.34 91.8258 103.305C92.0096 103.269 92.1804 103.185 92.3203 103.06C93.4204 101.853 94.4173 100.555 95.3003 99.1802ZM90.8003 92.4802C83.9603 89.9202 83.9603 90.4802 91.4803 87.7602C93.1203 87.1602 92.3403 83.5802 93.4803 80.5002C100.62 87.1802 94.6003 86.6202 105.04 84.2202C103.5 88.3402 100.3 89.5202 102.14 91.6602C103.169 93.0998 104.059 94.6333 104.8 96.2402C105.3 97.0802 102.8 96.2402 99.2603 94.9202C97.2603 94.1802 97.7203 92.6802 93.0003 99.2802C91.1603 101.86 93.8203 93.6002 90.8003 92.4802Z" fill="#000001"/>
    <path d="M56.8006 64.2199C57.7606 63.1799 57.7806 63.1799 58.6606 64.2199C59.5563 65.2851 60.2356 66.5148 60.6606 67.8399C61.0206 69.1199 59.6606 68.4399 59.2406 68.4599C57.2406 68.4599 58.0606 69.9599 58.5606 70.1999C63.4806 72.5799 65.6006 66.9199 65.7406 68.7799C65.9606 71.2999 65.9406 74.0399 66.0606 77.3399C66.0606 78.8399 67.2806 79.9799 68.3006 79.0599C69.3206 78.1399 72.0406 75.3799 75.9006 71.6199C82.2206 65.4399 82.4806 65.6199 82.4006 64.3999C81.4806 50.9999 80.4006 54.3999 84.8006 49.6199C90.1206 43.8799 100.801 32.1999 104.261 25.1999C109.601 14.6199 111.721 3.47994 106.741 2.91994C100.081 2.17994 88.5006 7.99993 82.7406 13.0599C78.6098 16.5973 74.7523 20.4416 71.2006 24.5599C59.2006 37.7399 62.6006 35.5999 57.2006 36.3199C46.3406 37.7199 50.1406 35.3799 36.6406 50.0999C34.9806 51.9199 36.1606 53.1599 37.2406 53.1599C40.4821 52.8213 43.7438 52.7144 47.0006 52.8399C46.4354 53.4248 46.0201 54.1378 45.7903 54.9178C45.5604 55.6979 45.5228 56.5221 45.6806 57.3199C46.0978 58.9051 46.9338 60.3488 48.1006 61.4999C48.7606 61.9199 49.2406 61.1799 48.9806 60.3999C48.8606 59.9999 46.8006 56.9599 47.4006 56.2199C48.0006 55.4799 49.5206 56.2199 53.9406 59.5799C55.1606 60.4999 52.8206 61.3799 50.8406 64.2999C49.7006 66.0199 51.7206 66.8999 52.2606 67.2999C52.8006 67.6999 53.3006 67.7799 53.8406 67.3999L56.8006 64.2199ZM47.0006 77.6799C33.0006 99.6799 29.8806 122.72 40.6806 151.36C40.8806 151.86 41.5606 154.12 42.2406 153.66C44.4006 152.24 32.9806 134.24 36.7406 107.76C40.2006 83.3999 56.2806 69.3399 56.7406 67.2199C56.9806 66.1799 56.6006 65.7399 55.3606 66.2199C52.2966 69.8298 49.5023 73.6601 47.0006 77.6799ZM53.2406 56.7799C49.3406 53.8399 47.8006 55.1399 48.5406 53.8799C48.9006 53.2599 49.2606 52.5599 49.8406 52.8199C52.6206 53.0599 53.5806 54.1199 56.9406 56.3999C57.5206 56.7999 57.0606 57.2399 56.1406 58.1399C55.6006 58.7399 55.7206 58.6199 53.3206 56.7799H53.2406ZM53.0006 65.8199C51.5206 64.7999 50.8606 66.8799 68.6806 46.1199C69.5606 45.1199 70.6806 44.1199 71.2206 45.4599C71.2806 45.5199 53.1006 65.7799 53.0006 65.8199ZM63.7006 67.8199C61.9406 69.3199 63.5206 67.8199 60.4806 63.8199C59.0806 61.9799 58.9006 61.9799 59.1606 61.6799C60.7806 59.7799 60.4406 58.8799 64.3206 66.4599C64.7206 66.9999 64.3206 67.2999 63.7606 67.7799L63.7006 67.8199ZM68.3406 76.8599C67.7006 77.5199 68.0006 77.4999 67.3006 67.4799C67.3006 66.5399 75.3006 60.2799 77.8806 57.1999C80.4606 54.1199 79.8806 54.6399 80.7406 63.8399C81.1606 64.6599 81.0006 64.3399 68.4006 76.8199L68.3406 76.8599ZM87.0006 12.5999C91.0386 9.61959 95.5764 7.38443 100.401 5.99994C107.981 3.99994 107.141 5.99994 107.501 8.97993C107.306 11.8101 106.686 14.5948 105.661 17.2399C100.841 28.9999 101.261 27.9399 99.9406 25.5799C93.8206 14.6799 85.3606 13.6199 87.0006 12.5999ZM84.4206 14.5999C86.9806 12.1799 101.521 27.1199 99.4206 29.9199C93.2806 38.1599 71.9206 62.1599 66.2806 65.6199C65.1059 63.3339 63.7693 61.1349 62.2806 59.0399C61.7806 58.2999 61.7206 58.7999 68.7806 50.9399C72.7806 46.3799 73.9206 45.8599 72.5206 44.1399C71.9206 43.3999 70.3206 42.3199 69.3006 43.3599C68.2806 44.3999 67.7206 45.0999 62.7006 50.8599C58.0806 56.1399 59.0406 55.5399 57.4006 54.2999C50.8006 49.3199 49.6206 53.2399 53.8406 47.8599C63.3048 36.1303 73.4983 25.0083 84.3606 14.5599L84.4206 14.5999ZM48.2406 39.9999C49.0606 39.0399 49.0606 39.1999 58.8806 37.9999C60.4206 37.7999 56.0606 41.3399 52.8806 46.1399C52.1606 47.1799 49.4406 50.8199 48.3806 50.9599C48.3806 50.9599 38.3806 51.2599 38.3806 51.1999C37.9606 50.8399 43.3006 45.7399 48.2406 39.9999Z" fill="#000001"/>
    <path d="M98.0604 201.56C102.06 200.4 102.32 200.04 103.74 200.02C104.075 200.042 104.407 199.943 104.675 199.742C104.943 199.54 105.129 199.248 105.2 198.92C105.2 196.62 97.2004 200.28 93.4204 200.92C89.9804 201.5 82.1604 203.78 81.0204 205.02C80.2204 205.9 80.6604 206.4 81.7404 206.46C85.7404 205.1 85.2004 204.92 86.6404 204.46C95.0004 202.18 89.2404 204.1 98.0604 201.56Z" fill="#000001"/>
    <path d="M91 138C89.76 138.16 85.64 139.06 85 139.24C83.82 139.54 80.12 131.36 79.18 134.4C76.88 141.88 80.04 140.66 74.18 141.16C71.78 141.36 71.74 142 71.8 143.16C71.8 143.94 72.08 144.1 73.52 144.98C80.02 148.98 77.18 146.08 76.64 153.48C76.64 154.5 77.16 154.98 77.98 154.72C79.84 154.1 82.78 148.72 84.14 149.42C86.1077 150.101 88.1105 150.675 90.14 151.14C91.28 151.46 91.76 150.86 91.62 149.98C91.4 148.58 89.86 147.98 88.32 145.14C87.98 144.48 88.06 144.78 91.88 140.2C92.54 139.36 92.84 137.78 91 138ZM86.6 146C88.46 149.28 89.22 148.98 85.6 148.18C81.4 147.24 83.3 146.96 78.94 151.38C78.42 151.92 79.04 149.72 79.2 147.64C79.38 145.16 74.58 144.36 73.88 143.06C74.22 143.06 73.62 143.06 76.7 142.76C80.5 142.44 78.7 140.3 80.36 136.9C81.72 138.06 83.12 141.54 84.36 141.28C94.5 138.92 84.4 142.12 86.6 146Z" fill="#000001"/>
    <path d="M83.5206 37.6398C93.1806 37.1398 92.5006 22.9998 83.2206 23.2198C73.0006 24.4598 74.8606 37.9998 83.5206 37.6398ZM82.4606 25.1798C83.2395 25.0417 84.0391 25.0777 84.8023 25.285C85.5656 25.4923 86.2735 25.866 86.8753 26.3792C87.4771 26.8925 87.9578 27.5325 88.283 28.2535C88.6083 28.9743 88.77 29.7583 88.7563 30.5492C88.7428 31.34 88.5545 32.118 88.2048 32.8273C87.8551 33.5368 87.3528 34.16 86.7338 34.6523C86.1148 35.1447 85.3945 35.4938 84.6246 35.675C83.8546 35.8562 83.0543 35.8647 82.2806 35.6998C81.0646 35.4408 79.9763 34.7672 79.2023 33.794C78.4283 32.821 78.0166 31.609 78.038 30.3658C78.0591 29.1225 78.512 27.9253 79.319 26.9793C80.1258 26.0333 81.2365 25.3972 82.4606 25.1798Z" fill="#000001"/>
    <path d="M61.4604 170.68C60.1404 170.92 59.8804 172.68 61.5804 172.68C70.2604 172.54 70.7004 156.82 62.3404 156.94C61.4316 156.907 60.5241 157.035 59.6604 157.32C59.5404 156.18 61.6604 151.2 59.4204 147.32C56.9404 143.04 49.7604 143.32 47.4204 149.22C46.5222 151.772 46.1376 154.477 46.2886 157.178C46.4396 159.88 47.1234 162.523 48.3004 164.96C48.7604 165.86 49.9204 165.34 49.6404 164.14C43.6404 147.08 55.3804 142.68 58.0204 148.84C60.2204 153.98 55.4604 159.66 57.5204 160.84C58.9804 161.66 59.7204 158.44 62.5404 158.84C66.2004 159.48 66.8604 163.46 66.2604 166.12C65.2404 170.5 62.4804 170.48 61.4604 170.68Z" fill="#000001"/>
    <path d="M40.7605 155.48C29.5805 137.12 26.7605 105.02 40.5805 78.86C43.7594 73.2863 47.3214 67.9402 51.2405 62.86C53.1005 61.04 51.2405 60.08 50.2205 61.24C38.6405 74.94 29.5605 94.78 29.5605 112.66C29.5605 138.86 36.1206 151.62 39.4005 155.54C41.0006 157.38 41.8205 157.22 40.7605 155.48Z" fill="#000001"/>
    <path d="M31.4801 171.28C21.4801 174.42 22.6201 162.82 32.5201 166.84C32.6422 166.913 32.7791 166.96 32.9209 166.975C33.0629 166.992 33.2064 166.975 33.3418 166.93C33.4769 166.885 33.6006 166.81 33.7039 166.712C33.8074 166.613 33.8879 166.493 33.9401 166.36C34.4801 165.14 33.4201 164.84 32.4001 164.5C26.9401 162.68 33.0201 152.26 40.5801 164.98C41.2001 166.02 42.2601 165.3 42.0201 164.5C40.4201 158.8 34.0201 154.5 30.0201 158C29.1696 158.718 28.6006 159.715 28.4139 160.813C28.2273 161.912 28.4349 163.04 29.0001 164C24.2801 164.12 23.0001 166 22.4601 168.46C21.3801 174.26 30.7201 174.94 33.1001 172.66C34.0201 171.74 33.2601 170.72 31.4801 171.28Z" fill="#000001"/>
    <path d="M17.9003 135.74C17.6003 135.14 17.4003 133.98 16.0203 134.82C10.4003 138.24 11.5403 137.7 10.0203 136.08C7.74031 133.7 7.16031 132.78 6.02031 133.06C5.52031 133.2 5.64031 134.22 5.76031 134.76C7.14031 141.16 7.58031 139.46 4.98031 140.42C4.38031 140.66 3.86031 140.94 1.42031 141.96C1.19048 142.066 0.995811 142.235 0.859311 142.447C0.722811 142.66 0.650146 142.908 0.650146 143.16C0.650146 143.413 0.722811 143.661 0.859311 143.873C0.995811 144.086 1.19048 144.255 1.42031 144.36C8.86031 147.14 7.18031 146.62 7.68031 149.76C8.26031 153.36 8.36031 154.26 9.12031 154.34C9.43015 154.382 9.74515 154.32 10.0163 154.165C10.2875 154.009 10.4998 153.769 10.6203 153.48C13.7403 145.9 11.7003 147.9 14.6203 148.42C19.6403 149.32 19.9003 149.82 20.6203 148.94C21.3403 148.06 19.8803 146.76 19.1603 145.94C14.4403 140.5 15.8403 144.1 17.9003 135.74ZM16.4203 146.68C15.3516 146.6 14.3138 146.286 13.3803 145.76C10.8603 144.94 10.8603 149.98 9.86031 150.84C9.61814 149.783 9.48415 148.704 9.46031 147.62C9.46031 145.42 8.26031 145.26 4.62031 143.26C3.82031 142.8 5.64031 142.62 7.70031 141.58C9.76031 140.54 8.12031 138.54 8.08031 137.14C8.08031 136.3 9.48031 138.32 10.3603 139.42C11.7203 141.12 11.8803 138.42 15.7003 137.28C15.0603 140.58 12.8403 141.44 14.9803 143.72C18.1003 147.06 17.2603 146.76 16.4203 146.68Z" fill="#000001"/>
</svg>
